<?xml version="1.0" encoding="utf-8"?>
<!-- Generator: Adobe Illustrator 19.2.1, SVG Export Plug-In . SVG Version: 6.00 Build 0)  -->
<svg version="1.1" id="layer" xmlns="http://www.w3.org/2000/svg" xmlns:xlink="http://www.w3.org/1999/xlink" x="0px" y="0px"
	 viewBox="0 0 652 652" style="enable-background:new 0 0 652 652;" xml:space="preserve">
<style type="text/css">
	.st0{fill:#0072BC;}
	.st1{fill:#FFFFFF;}
	.st2{fill:#ED1C24;}
	.st3{fill:#002F60;}
</style>
<g>
	<path class="st0" d="M604,401.2H20.6V243.3h600v141.3C620.6,393.7,613.2,401.2,604,401.2"/>
	<path class="st1" d="M79,313.6h10c5.4,0,9.1-3.2,9.1-8.7c0-5.5-3.7-8.6-9.1-8.6H79V313.6z M64.4,290.5c0-4.7,2.6-7.6,7.5-7.6h17.1
		c15,0,24.2,6.7,24.2,22c0,10.7-8.1,16.8-18,18.4l16.5,17.7c1.4,1.5,1.9,2.9,1.9,4.3c0,3.8-3,7.5-7.3,7.5c-1.8,0-4.1-0.7-5.6-2.5
		l-21.6-26.2H79v21.1c0,4.9-3.1,7.6-7.3,7.6c-4.2,0-7.3-2.7-7.3-7.6V290.5z"/>
	<path class="st1" d="M122.4,291.4c0-4.9,2.4-8.5,7.6-8.5h24.1c4.7,0,6.9,3.3,6.9,6.7c0,3.3-2.3,6.7-6.9,6.7h-17.1v14.2h16
		c4.8,0,7.1,3.3,7.1,6.7c0,3.3-2.4,6.7-7.1,6.7h-16v14.8h18c4.7,0,6.9,3.3,6.9,6.7c0,3.3-2.3,6.7-6.9,6.7h-25.1
		c-4.3,0-7.5-2.9-7.5-7.3V291.4z"/>
	<path class="st1" d="M170.8,289.9c0-4.9,3.1-7.6,7.3-7.6c1.9,0,4.9,1.5,6.1,3.2l30.9,41.2h0.2v-36.8c0-4.9,3.1-7.6,7.3-7.6
		c4.2,0,7.3,2.7,7.3,7.6v55.3c0,4.9-3.1,7.6-7.3,7.6c-1.9,0-4.8-1.5-6.1-3.2l-30.9-40.7h-0.2v36.3c0,4.9-3.1,7.6-7.3,7.6
		c-4.2,0-7.3-2.7-7.3-7.6V289.9z"/>
	<path class="st1" d="M253.7,296.3h-10.6c-4.7,0-6.6-3.4-6.6-6.7c0-3.4,2.4-6.7,6.6-6.7h35.8c4.2,0,6.6,3.3,6.6,6.7
		c0,3.3-1.9,6.7-6.6,6.7h-10.6v48.9c0,4.9-3.1,7.6-7.3,7.6c-4.2,0-7.3-2.7-7.3-7.6V296.3z"/>
	<path class="st2" d="M315,361.7H70.4c-3.2,0-5.9,2.6-5.9,5.9c0,3.2,2.6,5.9,5.9,5.9h256C322.3,369.5,318.5,365.6,315,361.7"/>
	<path class="st2" d="M566.5,361.7h-204c-3.5,3.9-7.3,7.8-11.4,11.7h215.4c3.2,0,5.9-2.6,5.9-5.9
		C572.3,364.4,569.7,361.7,566.5,361.7"/>
	<path class="st3" d="M342.2,270.4L342.2,270.4c21.8,0,39.5,16.8,39.5,37.6c-0.1,31.8-34.1,59.8-39.5,64.9
		c-5.4-5.1-39.4-33.1-39.5-64.9C302.8,287.2,320.4,270.4,342.2,270.4L342.2,270.4"/>
	<path class="st1" d="M425,281.7c7.1,0,20.9,2.3,20.9,10.9c0,3.5-2.4,6.5-6,6.5c-4,0-6.7-3.4-14.9-3.4c-12.1,0-18.3,10.2-18.3,22.1
		c0,11.6,6.3,21.5,18.3,21.5c8.2,0,11.5-4.1,15.5-4.1c4.4,0,6.4,4.4,6.4,6.6c0,9.4-14.7,11.5-21.9,11.5c-19.8,0-33.5-15.7-33.5-35.8
		C391.5,297.3,405.2,281.7,425,281.7"/>
	<path class="st1" d="M474.8,325.1h18.5l-9.1-28.2H484L474.8,325.1z M473.7,289.8c1.7-4.5,5.5-8.1,10.4-8.1c5.2,0,8.8,3.4,10.4,8.1
		l19.1,53c0.6,1.6,0.8,2.9,0.8,3.6c0,3.8-3.1,6.4-6.7,6.4c-4.1,0-6.1-2.1-7.1-5.1l-2.9-9.1h-27.1l-2.9,9.1c-1,3-3,5.2-7,5.2
		c-3.9,0-7.2-2.9-7.2-6.8c0-1.6,0.5-2.7,0.7-3.2L473.7,289.8z"/>
	<path class="st1" d="M537.5,313.6h10c5.4,0,9.1-3.2,9.1-8.7c0-5.5-3.7-8.6-9.1-8.6h-10V313.6z M522.9,290.5c0-4.7,2.6-7.6,7.5-7.6
		h17.1c15,0,24.2,6.7,24.2,22c0,10.7-8.1,16.8-18,18.4l16.5,17.7c1.4,1.5,1.9,2.9,1.9,4.3c0,3.8-3,7.5-7.3,7.5
		c-1.8,0-4.1-0.7-5.6-2.5l-21.6-26.2h-0.2v21.1c0,4.9-3.1,7.6-7.3,7.6c-4.2,0-7.3-2.7-7.3-7.6V290.5z"/>
	<path class="st2" d="M338.7,269L338.7,269c21.8,0,39.5,16.8,39.5,37.6c-0.1,31.8-34.1,59.8-39.5,64.9c-5.4-5.1-39.4-33.1-39.5-64.9
		C299.3,285.8,316.9,269,338.7,269L338.7,269"/>
	<path class="st1" d="M328.3,312.1c0,6,3.2,11.1,9,11.1c5.8,0,9-5,9-11.1c0-6.1-3.2-11.1-9-11.1C331.5,301,328.3,306,328.3,312.1
		 M359.4,328.1c0,3.8-2.7,6.8-6.6,6.8c-3.2,0-5.2-2.2-6.1-4.2c-2.9,3.6-6.3,5-11.3,5c-11.4,0-20.2-10.5-20.2-23.7
		c0-13.2,8.8-23.7,20.2-23.7c5,0,8.3,1.4,11.3,5c0.9-2,2.9-4.2,6.1-4.2c3.9,0,6.6,3,6.6,6.8V328.1z"/>
</g>
</svg>
